<svg viewBox="0 0 33 33" xmlns="http://www.w3.org/2000/svg" id="linkedin" width="33" height="33" >
    <path fill="#6B7C93" fill-rule="evenodd" d="M0 16.5C0 7.387 7.387 0 16.5 0S33 7.387 33 16.5 25.613 33 16.5 33 0 25.613 0 16.5zm25 1.337c0-3.3-1.616-4.837-3.771-4.837-1.74 0-2.517 1.045-2.953 1.775v.036h-.021l.021-.036v-1.523H15C15.044 14.261 15 24 15 24h3.276v-6.003c0-.322.022-.64.109-.87.237-.643.775-1.307 1.68-1.307 1.186 0 1.66.986 1.66 2.43V24H25v-6.163zM11.012 8C9.796 8 9 8.864 9 10c0 1.11.773 2 1.966 2h.023c1.24 0 2.011-.89 2.011-2-.024-1.136-.771-2-1.988-2zM9 23h3V13H9v10z"/>
</svg>
