<svg xmlns="http://www.w3.org/2000/svg" width="92" height="80" viewBox="0 0 92 80">
    <g fill="none" fill-rule="evenodd">
        <g fill-rule="nonzero" opacity=".357">
            <path stroke="#979797" stroke-dasharray="1,1" stroke-width="2" d="M82.946 5.853L68.457 1.97c-1.992-.534-4.046.686-4.587 2.704l-7.886 29.36c-.541 2.018.628 4.102 2.62 4.636l21.752 5.828c1.992.534 4.064-.681 4.605-2.7l5.901-22.023-7.916-13.923zM78 17.659L80.588 8l7.071 12.247L78 17.66z"/>
            <path fill="#637381" d="M73.045 28.34c-.36.571-.816 1.163-1.39 1.794-.254.275-.52.53-.655.764l.101-.01a16.367 16.367 0 0 1 3.016-.03 2.98 2.98 0 0 1-.272-.363c-.39-.564-.659-1.305-.8-2.155zm5.14 5.06c-.206.135-.514.162-.925.052-.71-.19-1.813-.716-2.62-1.443-1.655-.253-2.91-.359-3.955-.308-.052.006-.113.01-.186.02-1.69 1.671-2.788 2.329-3.545 2.126a.868.868 0 0 1-.384-.213l-.371-.41-.015-.055a.879.879 0 0 1 .088-.517c.236-.468.979-1.11 2.289-1.51.212-.084.533-.158.954-.236.411-.41.863-.9 1.349-1.442.734-.835 1.289-1.708 1.743-2.468l.003-.01c-.043-1.223-.066-1.96.613-3.111.18-.333.585-.615.931-.522l.225.06c.215.057.4.187.51.377.452.782-.242 2.21-.883 3.37-.034.051-.056.095-.073.121.091 1.157.396 2.15.855 2.794.193.252.414.511.668.76.433.066.84.155 1.223.258 1.16.31 1.806.704 1.959 1.216a.779.779 0 0 1-.026.544.935.935 0 0 1-.427.547zm-1.163-.565c-.061-.12-.345-.455-1.563-.781-.06-.017-.122-.033-.226.043.552.479 1.121.828 1.521.935.061.017.116.02.17.025l.036.01c.048-.008.077-.01.112-.105-.01-.034-.017-.077-.05-.127zm-7.573-1.317a5.006 5.006 0 0 0-.628.152c-.98.41-1.665.91-1.821 1.262.553-.007 1.398-.464 2.45-1.414zm3.731-5.538l.058-.023c.144-.266.24-.508.35-.688l.067-.135c.233-.481.283-.745.176-1.002l-.133-.084a1.157 1.157 0 0 0-.096.089c-.265.33-.43.982-.422 1.843z"/>
        </g>
        <path d="M-11 23h64v64h-64z"/>
        <path fill="#919EAB" fill-rule="nonzero" d="M26.875 27h-21.5C2.419 27 .027 29.385.027 32.3L0 74.7C0 77.615 2.392 80 5.348 80h32.277C40.581 80 43 77.615 43 74.7V42.9L26.875 27zM32 64.125h-7.875V72h-5.25v-7.875H11v-5.25h7.875V51h5.25v7.875H32v5.25zM24 46V31l15 15H24z"/>
    </g>
</svg>
